<svg width="900" height="1100" viewBox="0 0 900 1100" fill="none" xmlns="http://www.w3.org/2000/svg">
  <rect width="900" height="1100" rx="40" fill="#F5EFE3"/>
  <rect x="80" y="80" width="740" height="940" rx="32" fill="#111111"/>
  <rect x="150" y="180" width="300" height="540" rx="24" fill="#C9A227"/>
  <rect x="480" y="220" width="260" height="420" rx="24" fill="#EAD9A3"/>
  <circle cx="300" cy="260" r="90" fill="#F6E8C7"/>
  <path d="M220 460C220 385 278 330 350 330H360C430 330 488 385 488 460V620H220V460Z" fill="#1E1E1E"/>
  <path d="M230 650H478L520 820H188L230 650Z" fill="#C9A227"/>
  <rect x="260" y="700" width="180" height="70" rx="20" fill="#111111"/>
  <rect x="530" y="300" width="140" height="280" rx="24" fill="#D5D5D5"/>
  <rect x="545" y="325" width="110" height="54" rx="12" fill="#111111"/>
  <rect x="545" y="390" width="110" height="54" rx="12" fill="#C9A227"/>
  <rect x="545" y="455" width="110" height="54" rx="12" fill="#FFFFFF"/>
  <circle cx="690" cy="300" r="70" fill="#111111"/>
  <path d="M660 300C660 280 676 264 696 264H704C724 264 740 280 740 300V340H660V300Z" fill="#C9A227"/>
</svg>
